<?xml version="1.0" encoding="UTF-8" standalone="no"?>
<svg
    xmlns="http://www.w3.org/2000/svg"
    viewBox="0 0 655 655">
<g transform="translate(0, 0) scale(13.0995)" fill="#313e43"><circle cx="25" cy="25" r="25"></circle></g><g fill="#3ac6cd" transform="translate(189.80377886555814, 213.54727958943755) scale(5.245272041056245)"><path d="M10.6 10 l0 2.42 l-3.6 0 l0 11.58 l-2.62 0 l0 -11.58 l-3.58 0 l0 -2.42 l9.8 0 z M17.52 13.42 c2.36 0 5.6 1.8 5.04 6.3 l-7.86 0 c0.34 1.52 1.6 2.3 3.1 2.3 c1.34 0 1.94 -0.32 2.68 -0.8 l1.44 1.38 c-0.92 0.98 -2.22 1.6 -4.2 1.6 c-2.62 0 -5.62 -1.8 -5.62 -5.38 c0 -3.6 3.06 -5.4 5.42 -5.4 z M17.52 15.62 c-1.16 0 -2.42 0.76 -2.8 2.24 l5.58 0 c-0.3 -1.48 -1.62 -2.24 -2.78 -2.24 z M29.38 16.58 c-0.34 -0.76 -0.84 -1.1 -1.5 -1.1 c-0.64 0 -1.16 0.38 -1.16 0.92 c0 0.52 0.3 0.84 0.98 1.1 l1.22 0.42 c1.56 0.56 2.98 1.16 2.98 3.12 c0 2.06 -2.02 3.18 -4.04 3.18 c-1.88 0 -3.62 -1.08 -4.04 -2.88 l2.04 -0.62 c0.28 0.78 0.92 1.46 2 1.46 c0.82 0 1.5 -0.5 1.5 -1.16 c0 -0.46 -0.34 -0.8 -1.06 -1.08 l-1.2 -0.42 c-2 -0.72 -2.88 -1.76 -2.88 -3.14 c0 -1.84 1.66 -2.96 3.56 -2.96 s3.18 1.02 3.74 2.58 z M37.96 21.86 c0.56 0 0.94 -0.08 1.38 -0.24 l0 2.14 c-0.44 0.22 -1.08 0.36 -2.04 0.36 c-1.48 0 -2.76 -0.54 -2.76 -3.22 l0 -5.18 l-1.44 0 l0 -2.12 l1.44 0 l0 -2.44 l2.58 0 l0 2.44 l2.2 0 l0 2.12 l-2.2 0 l0 5.14 c0 0.52 0.16 1 0.84 1 z M46.14 13.42 c2.36 0 5.42 1.8 5.42 5.4 c0 3.64 -3.06 5.38 -5.42 5.38 s-5.42 -1.74 -5.42 -5.38 c0 -3.6 3.06 -5.4 5.42 -5.4 z M46.14 15.7 c-1.38 0 -2.92 1.06 -2.92 3.12 c0 2.04 1.54 3.1 2.92 3.1 s2.94 -1.06 2.94 -3.1 c0 -2.06 -1.56 -3.12 -2.94 -3.12 z"></path></g><g fill="#3ac6cd" transform="translate(306.17823713913344, 336.532717720403) scale(2.6058179760565507)"><path d="M13.789 21.2211 q-1.010526316 1.389473684 -2.6 2.221052632 t-3.4421 0.83158 q-2.042105263 0 -3.736842105 -1 t-2.6947 -2.7053 t-1 -3.7474 q0 -1.494736842 0.5684210526 -2.863157895 t1.6105 -2.4105 t2.4 -1.6 t2.8526 -0.55789 q1.852631579 0 3.431578947 0.8105263158 t2.5895 2.2421 l-0.92632 0.65263 q-0.5263157895 -0.7368421053 -1.347368421 -1.336842105 t-1.7579 -0.90526 t-1.9895 -0.30526 q-1.684210526 0 -3.136842105 0.8315789474 t-2.2947 2.3053 t-0.84211 3.1368 q0 1.705263158 0.8421052632 3.157894737 t2.2947 2.2947 t3.1368 0.84211 q1.557894737 0 2.894736842 -0.6947368421 t2.2 -1.8737 z M14.71579052631579 24 l0 -14.316 l1.1579 0 l0 14.316 l-1.1579 0 z"></path></g></svg>
